<svg xmlns="http://www.w3.org/2000/svg" viewBox="0 0 128 128" role="img" aria-labelledby="title desc">
  <title id="title">CampusOps</title>
  <desc id="desc">CO 모노그램과 캠퍼스 건축물을 결합한 CampusOps 심볼</desc>
  <defs>
    <linearGradient id="mark-bg" x1="18" y1="8" x2="108" y2="120" gradientUnits="userSpaceOnUse">
      <stop stop-color="#123B63"/>
      <stop offset="1" stop-color="#061F38"/>
    </linearGradient>
    <linearGradient id="mark-accent" x1="25" y1="20" x2="103" y2="106" gradientUnits="userSpaceOnUse">
      <stop stop-color="#FFFFFF"/>
      <stop offset="1" stop-color="#D7EBFB"/>
    </linearGradient>
  </defs>
  <rect x="4" y="4" width="120" height="120" rx="27" fill="url(#mark-bg)"/>
  <path d="M21 26C30 14 50 14 61 26M61 50C50 62 30 62 21 50" fill="none" stroke="url(#mark-accent)" stroke-width="8" stroke-linecap="round"/>
  <circle cx="85" cy="38" r="22" fill="none" stroke="url(#mark-accent)" stroke-width="8"/>
  <path d="M24 75L64 62L104 75H24Z" fill="url(#mark-accent)"/>
  <path d="M31 79H97M36 83V103M50 83V103M64 83V103M78 83V103M92 83V103M27 105H101" fill="none" stroke="url(#mark-accent)" stroke-width="6" stroke-linecap="round"/>
  <path d="M28 117C48 105 75 104 103 110C76 109 54 112 37 120Z" fill="#72B5ED"/>
</svg>
